<svg id="visual" viewBox="0 0 1920 650" width="1920" height="650" xmlns="http://www.w3.org/2000/svg" xmlns:xlink="http://www.w3.org/1999/xlink" version="1.1"><rect x="0" y="0" width="1920" height="650" fill="#27374d"></rect><defs><linearGradient id="grad1_0" x1="66.1%" y1="100%" x2="100%" y2="0%"><stop offset="-9.07692307692308%" stop-color="#27374d" stop-opacity="1"></stop><stop offset="109.0769230769231%" stop-color="#27374d" stop-opacity="1"></stop></linearGradient></defs><defs><linearGradient id="grad2_0" x1="0%" y1="100%" x2="33.9%" y2="0%"><stop offset="-9.07692307692308%" stop-color="#27374d" stop-opacity="1"></stop><stop offset="109.0769230769231%" stop-color="#27374d" stop-opacity="1"></stop></linearGradient></defs><g transform="translate(1920, 650)"><path d="M-292.5 0C-288.4 -38 -284.4 -76.1 -270.2 -111.9C-256.1 -147.8 -231.9 -181.4 -201.5 -201.5C-171.1 -221.6 -134.5 -228.2 -99.9 -241.1C-65.3 -254 -32.6 -273.3 0 -292.5L0 0Z" fill="#4FACF7"></path></g><g transform="translate(0, 0)"><path d="M292.5 0C278.6 35.7 264.8 71.4 248.5 102.9C232.3 134.5 213.6 162 191.6 191.6C169.7 221.3 144.4 253.1 111.9 270.2C79.4 287.4 39.7 290 0 292.5L0 0Z" fill="#4FACF7"></path></g></svg>